<mxfile host="app.diagrams.net" modified="2024-01-30T03:33:29.261Z" agent="Mozilla/5.0 (Windows NT 10.0; Win64; x64) AppleWebKit/537.36 (KHTML, like Gecko) Chrome/121.0.0.0 Safari/537.36" etag="DH9Jx8Z2Fm6-KALlYKIi" version="21.3.8" type="github" pages="2">
  <diagram id="C5RBs43oDa-KdzZeNtuy" name="Page-1">
    <mxGraphModel dx="246" dy="636" grid="1" gridSize="10" guides="1" tooltips="1" connect="1" arrows="0" fold="1" page="0" pageScale="1" pageWidth="827" pageHeight="1169" math="0" shadow="0">
      <root>
        <mxCell id="WIyWlLk6GJQsqaUBKTNV-0" />
        <mxCell id="WIyWlLk6GJQsqaUBKTNV-1" parent="WIyWlLk6GJQsqaUBKTNV-0" />
        <mxCell id="pO1PlLlpX6BgmMhYATf7-2" value="" style="edgeStyle=orthogonalEdgeStyle;rounded=0;orthogonalLoop=1;jettySize=auto;html=1;fontStyle=1;fontFamily=Helvetica;" edge="1" parent="WIyWlLk6GJQsqaUBKTNV-1" source="pO1PlLlpX6BgmMhYATf7-0" target="pO1PlLlpX6BgmMhYATf7-1">
          <mxGeometry relative="1" as="geometry" />
        </mxCell>
        <mxCell id="pO1PlLlpX6BgmMhYATf7-0" value="预定义特定实体集合、采集垂直领域内数据、数据预处理" style="rounded=1;whiteSpace=wrap;html=1;fontSize=12;glass=0;strokeWidth=1;shadow=0;fontStyle=1;fontFamily=Helvetica;" vertex="1" parent="WIyWlLk6GJQsqaUBKTNV-1">
          <mxGeometry x="596" y="63" width="130" height="50" as="geometry" />
        </mxCell>
        <mxCell id="pO1PlLlpX6BgmMhYATf7-4" value="" style="edgeStyle=orthogonalEdgeStyle;rounded=0;orthogonalLoop=1;jettySize=auto;html=1;fontStyle=1;fontFamily=Helvetica;" edge="1" parent="WIyWlLk6GJQsqaUBKTNV-1" source="pO1PlLlpX6BgmMhYATf7-1" target="pO1PlLlpX6BgmMhYATf7-3">
          <mxGeometry relative="1" as="geometry" />
        </mxCell>
        <mxCell id="pO1PlLlpX6BgmMhYATf7-1" value="将生成的专业领域文件进行语料抽取和语料划分" style="whiteSpace=wrap;html=1;rounded=1;glass=0;strokeWidth=1;shadow=0;fontStyle=1;fontFamily=Helvetica;" vertex="1" parent="WIyWlLk6GJQsqaUBKTNV-1">
          <mxGeometry x="601" y="143" width="120" height="60" as="geometry" />
        </mxCell>
        <mxCell id="pO1PlLlpX6BgmMhYATf7-6" value="" style="edgeStyle=orthogonalEdgeStyle;rounded=0;orthogonalLoop=1;jettySize=auto;html=1;fontStyle=1;fontFamily=Helvetica;" edge="1" parent="WIyWlLk6GJQsqaUBKTNV-1" source="pO1PlLlpX6BgmMhYATf7-3" target="pO1PlLlpX6BgmMhYATf7-5">
          <mxGeometry relative="1" as="geometry" />
        </mxCell>
        <mxCell id="pO1PlLlpX6BgmMhYATf7-3" value="&lt;p class=&quot;MsoNormal&quot;&gt;基于LLM大模型指令和提示模板进行问答对生成&lt;/p&gt;" style="rounded=1;whiteSpace=wrap;html=1;glass=0;strokeWidth=1;shadow=0;fontStyle=1;fontFamily=Helvetica;" vertex="1" parent="WIyWlLk6GJQsqaUBKTNV-1">
          <mxGeometry x="601" y="223" width="120" height="60" as="geometry" />
        </mxCell>
        <mxCell id="pO1PlLlpX6BgmMhYATf7-33" style="edgeStyle=orthogonalEdgeStyle;rounded=0;orthogonalLoop=1;jettySize=auto;html=1;exitX=0.5;exitY=1;exitDx=0;exitDy=0;entryX=0.5;entryY=0;entryDx=0;entryDy=0;" edge="1" parent="WIyWlLk6GJQsqaUBKTNV-1" source="pO1PlLlpX6BgmMhYATf7-5" target="pO1PlLlpX6BgmMhYATf7-23">
          <mxGeometry relative="1" as="geometry" />
        </mxCell>
        <mxCell id="pO1PlLlpX6BgmMhYATf7-5" value="将生成的问答对进行表征嵌入，以向量的形式存储于向量数据库" style="rounded=1;whiteSpace=wrap;html=1;glass=0;strokeWidth=1;shadow=0;fontStyle=1;fontFamily=Helvetica;" vertex="1" parent="WIyWlLk6GJQsqaUBKTNV-1">
          <mxGeometry x="601" y="303" width="120" height="60" as="geometry" />
        </mxCell>
        <mxCell id="pO1PlLlpX6BgmMhYATf7-7" value="" style="edgeStyle=orthogonalEdgeStyle;rounded=0;orthogonalLoop=1;jettySize=auto;html=1;fontStyle=1;fontFamily=Helvetica;" edge="1" parent="WIyWlLk6GJQsqaUBKTNV-1" source="pO1PlLlpX6BgmMhYATf7-8" target="pO1PlLlpX6BgmMhYATf7-10">
          <mxGeometry relative="1" as="geometry" />
        </mxCell>
        <mxCell id="pO1PlLlpX6BgmMhYATf7-8" value="用户提出询问" style="rounded=1;whiteSpace=wrap;html=1;fontSize=12;glass=0;strokeWidth=1;shadow=0;fontStyle=1;fontFamily=Helvetica;" vertex="1" parent="WIyWlLk6GJQsqaUBKTNV-1">
          <mxGeometry x="749" y="63" width="130" height="50" as="geometry" />
        </mxCell>
        <mxCell id="pO1PlLlpX6BgmMhYATf7-9" value="" style="edgeStyle=orthogonalEdgeStyle;rounded=0;orthogonalLoop=1;jettySize=auto;html=1;fontStyle=1;fontFamily=Helvetica;" edge="1" parent="WIyWlLk6GJQsqaUBKTNV-1" source="pO1PlLlpX6BgmMhYATf7-10" target="pO1PlLlpX6BgmMhYATf7-12">
          <mxGeometry relative="1" as="geometry" />
        </mxCell>
        <mxCell id="pO1PlLlpX6BgmMhYATf7-10" value="&lt;p class=&quot;MsoNormal&quot;&gt;将用户查询用知识向量数据库构建相同的embedding技术编码成Query&amp;nbsp; Embedding&lt;/p&gt;" style="whiteSpace=wrap;html=1;rounded=1;glass=0;strokeWidth=1;shadow=0;fontStyle=1;fontFamily=Helvetica;" vertex="1" parent="WIyWlLk6GJQsqaUBKTNV-1">
          <mxGeometry x="754" y="143" width="120" height="60" as="geometry" />
        </mxCell>
        <mxCell id="pO1PlLlpX6BgmMhYATf7-11" value="" style="edgeStyle=orthogonalEdgeStyle;rounded=0;orthogonalLoop=1;jettySize=auto;html=1;fontStyle=1;fontFamily=Helvetica;" edge="1" parent="WIyWlLk6GJQsqaUBKTNV-1" source="pO1PlLlpX6BgmMhYATf7-12" target="pO1PlLlpX6BgmMhYATf7-13">
          <mxGeometry relative="1" as="geometry" />
        </mxCell>
        <mxCell id="pO1PlLlpX6BgmMhYATf7-12" value="&lt;p class=&quot;MsoNormal&quot;&gt;使用用户提问的查询向量对知识库发起检索&lt;/p&gt;" style="rounded=1;whiteSpace=wrap;html=1;glass=0;strokeWidth=1;shadow=0;fontStyle=1;fontFamily=Helvetica;" vertex="1" parent="WIyWlLk6GJQsqaUBKTNV-1">
          <mxGeometry x="754" y="223" width="120" height="60" as="geometry" />
        </mxCell>
        <mxCell id="pO1PlLlpX6BgmMhYATf7-36" value="" style="edgeStyle=orthogonalEdgeStyle;rounded=0;orthogonalLoop=1;jettySize=auto;html=1;exitX=0.5;exitY=1;exitDx=0;exitDy=0;entryX=0.5;entryY=0;entryDx=0;entryDy=0;spacingBottom=5;" edge="1" parent="WIyWlLk6GJQsqaUBKTNV-1" source="pO1PlLlpX6BgmMhYATf7-13" target="pO1PlLlpX6BgmMhYATf7-23">
          <mxGeometry relative="1" as="geometry" />
        </mxCell>
        <mxCell id="pO1PlLlpX6BgmMhYATf7-13" value="引入多路召回和重排技术匹配用户查询" style="rounded=1;whiteSpace=wrap;html=1;glass=0;strokeWidth=1;shadow=0;fontStyle=1;fontFamily=Helvetica;" vertex="1" parent="WIyWlLk6GJQsqaUBKTNV-1">
          <mxGeometry x="754" y="304" width="120" height="59" as="geometry" />
        </mxCell>
        <mxCell id="pO1PlLlpX6BgmMhYATf7-18" value="" style="edgeStyle=orthogonalEdgeStyle;rounded=0;orthogonalLoop=1;jettySize=auto;html=1;fontStyle=1;fontFamily=Helvetica;" edge="1" parent="WIyWlLk6GJQsqaUBKTNV-1" source="pO1PlLlpX6BgmMhYATf7-15" target="pO1PlLlpX6BgmMhYATf7-17">
          <mxGeometry relative="1" as="geometry" />
        </mxCell>
        <mxCell id="pO1PlLlpX6BgmMhYATf7-15" value="将Top-K结果与知识库相关文档融合，有机整合上下文信息" style="rounded=1;whiteSpace=wrap;html=1;glass=0;strokeWidth=1;shadow=0;fontStyle=1;fontFamily=Helvetica;" vertex="1" parent="WIyWlLk6GJQsqaUBKTNV-1">
          <mxGeometry x="860" y="425" width="120" height="60" as="geometry" />
        </mxCell>
        <mxCell id="pO1PlLlpX6BgmMhYATf7-20" value="" style="edgeStyle=orthogonalEdgeStyle;rounded=0;orthogonalLoop=1;jettySize=auto;html=1;fontStyle=1;fontFamily=Helvetica;" edge="1" parent="WIyWlLk6GJQsqaUBKTNV-1" source="pO1PlLlpX6BgmMhYATf7-17" target="pO1PlLlpX6BgmMhYATf7-19">
          <mxGeometry relative="1" as="geometry" />
        </mxCell>
        <mxCell id="pO1PlLlpX6BgmMhYATf7-17" value="借助&amp;nbsp;LLM的文本理解能力进行答案推理，生成可靠答案" style="rounded=1;whiteSpace=wrap;html=1;glass=0;strokeWidth=1;shadow=0;fontStyle=1;fontFamily=Helvetica;" vertex="1" parent="WIyWlLk6GJQsqaUBKTNV-1">
          <mxGeometry x="860" y="525" width="120" height="60" as="geometry" />
        </mxCell>
        <mxCell id="pO1PlLlpX6BgmMhYATf7-19" value="结束一轮回答" style="rounded=1;whiteSpace=wrap;html=1;glass=0;strokeWidth=1;shadow=0;fontStyle=1;fontFamily=Helvetica;" vertex="1" parent="WIyWlLk6GJQsqaUBKTNV-1">
          <mxGeometry x="860" y="610" width="120" height="60" as="geometry" />
        </mxCell>
        <mxCell id="pO1PlLlpX6BgmMhYATf7-26" value="" style="edgeStyle=orthogonalEdgeStyle;rounded=0;orthogonalLoop=1;jettySize=auto;html=1;fontStyle=1;fontFamily=Helvetica;" edge="1" parent="WIyWlLk6GJQsqaUBKTNV-1" source="pO1PlLlpX6BgmMhYATf7-23" target="pO1PlLlpX6BgmMhYATf7-25">
          <mxGeometry relative="1" as="geometry" />
        </mxCell>
        <mxCell id="pO1PlLlpX6BgmMhYATf7-28" value="" style="edgeStyle=orthogonalEdgeStyle;rounded=0;orthogonalLoop=1;jettySize=auto;html=1;fontStyle=1;fontFamily=Helvetica;" edge="1" parent="WIyWlLk6GJQsqaUBKTNV-1" source="pO1PlLlpX6BgmMhYATf7-23">
          <mxGeometry relative="1" as="geometry">
            <mxPoint x="860" y="455" as="targetPoint" />
          </mxGeometry>
        </mxCell>
        <mxCell id="pO1PlLlpX6BgmMhYATf7-23" value="用户查询是否已&lt;br&gt;存在知识库？" style="rhombus;whiteSpace=wrap;html=1;rounded=1;glass=0;strokeWidth=1;shadow=0;fontStyle=1;fontFamily=Helvetica;" vertex="1" parent="WIyWlLk6GJQsqaUBKTNV-1">
          <mxGeometry x="672.5" y="410" width="125" height="90" as="geometry" />
        </mxCell>
        <mxCell id="pO1PlLlpX6BgmMhYATf7-31" value="" style="edgeStyle=orthogonalEdgeStyle;rounded=0;orthogonalLoop=1;jettySize=auto;html=1;fontStyle=1;fontFamily=Helvetica;" edge="1" parent="WIyWlLk6GJQsqaUBKTNV-1" source="pO1PlLlpX6BgmMhYATf7-25" target="pO1PlLlpX6BgmMhYATf7-30">
          <mxGeometry relative="1" as="geometry" />
        </mxCell>
        <mxCell id="pO1PlLlpX6BgmMhYATf7-25" value="准确将匹配到的文段中的答案融合大模型生成回答" style="rounded=1;whiteSpace=wrap;html=1;glass=0;strokeWidth=1;shadow=0;fontStyle=1;fontFamily=Helvetica;" vertex="1" parent="WIyWlLk6GJQsqaUBKTNV-1">
          <mxGeometry x="675" y="525" width="120" height="60" as="geometry" />
        </mxCell>
        <mxCell id="pO1PlLlpX6BgmMhYATf7-29" value="是" style="text;html=1;align=center;verticalAlign=middle;resizable=0;points=[];autosize=1;strokeColor=none;fillColor=none;fontStyle=1;fontFamily=Helvetica;" vertex="1" parent="WIyWlLk6GJQsqaUBKTNV-1">
          <mxGeometry x="685" y="490" width="30" height="26" as="geometry" />
        </mxCell>
        <mxCell id="pO1PlLlpX6BgmMhYATf7-30" value="结束一轮回答" style="rounded=1;whiteSpace=wrap;html=1;glass=0;strokeWidth=1;shadow=0;fontStyle=1;fontFamily=Helvetica;" vertex="1" parent="WIyWlLk6GJQsqaUBKTNV-1">
          <mxGeometry x="675" y="610" width="120" height="60" as="geometry" />
        </mxCell>
        <mxCell id="pO1PlLlpX6BgmMhYATf7-32" value="否" style="text;html=1;align=center;verticalAlign=middle;resizable=0;points=[];autosize=1;strokeColor=none;fillColor=none;fontStyle=1;fontFamily=Helvetica;" vertex="1" parent="WIyWlLk6GJQsqaUBKTNV-1">
          <mxGeometry x="815" y="427" width="30" height="26" as="geometry" />
        </mxCell>
        <mxCell id="pO1PlLlpX6BgmMhYATf7-38" style="edgeStyle=orthogonalEdgeStyle;rounded=0;orthogonalLoop=1;jettySize=auto;html=1;exitX=1;exitY=0.5;exitDx=0;exitDy=0;entryX=0;entryY=0.5;entryDx=0;entryDy=0;" edge="1" parent="WIyWlLk6GJQsqaUBKTNV-1" source="pO1PlLlpX6BgmMhYATf7-37" target="pO1PlLlpX6BgmMhYATf7-40">
          <mxGeometry relative="1" as="geometry">
            <mxPoint x="1216.6666666666667" y="333.16666666666674" as="targetPoint" />
          </mxGeometry>
        </mxCell>
        <mxCell id="pO1PlLlpX6BgmMhYATf7-37" value="PDF、Word、Markdown和图片等多种相关语料篇章" style="ellipse;whiteSpace=wrap;html=1;" vertex="1" parent="WIyWlLk6GJQsqaUBKTNV-1">
          <mxGeometry x="1058" y="293" width="120" height="80" as="geometry" />
        </mxCell>
        <mxCell id="pO1PlLlpX6BgmMhYATf7-42" style="edgeStyle=orthogonalEdgeStyle;rounded=0;orthogonalLoop=1;jettySize=auto;html=1;exitX=1;exitY=0.5;exitDx=0;exitDy=0;" edge="1" parent="WIyWlLk6GJQsqaUBKTNV-1" source="pO1PlLlpX6BgmMhYATf7-40">
          <mxGeometry relative="1" as="geometry">
            <mxPoint x="1433.3333333333335" y="333.16666666666674" as="targetPoint" />
          </mxGeometry>
        </mxCell>
        <mxCell id="pO1PlLlpX6BgmMhYATf7-40" value="使用中文文本分割模型zh_core_web_sm&amp;nbsp;" style="rounded=1;whiteSpace=wrap;html=1;" vertex="1" parent="WIyWlLk6GJQsqaUBKTNV-1">
          <mxGeometry x="1243" y="303" width="120" height="60" as="geometry" />
        </mxCell>
        <mxCell id="pO1PlLlpX6BgmMhYATf7-41" value="数据输入" style="text;html=1;align=center;verticalAlign=middle;resizable=0;points=[];autosize=1;strokeColor=none;fillColor=none;" vertex="1" parent="WIyWlLk6GJQsqaUBKTNV-1">
          <mxGeometry x="1178" y="304" width="66" height="26" as="geometry" />
        </mxCell>
        <mxCell id="pO1PlLlpX6BgmMhYATf7-47" style="edgeStyle=orthogonalEdgeStyle;rounded=0;orthogonalLoop=1;jettySize=auto;html=1;exitX=0.5;exitY=1;exitDx=0;exitDy=0;entryX=0.5;entryY=0;entryDx=0;entryDy=0;" edge="1" parent="WIyWlLk6GJQsqaUBKTNV-1" source="pO1PlLlpX6BgmMhYATf7-43" target="pO1PlLlpX6BgmMhYATf7-46">
          <mxGeometry relative="1" as="geometry" />
        </mxCell>
        <mxCell id="pO1PlLlpX6BgmMhYATf7-43" value="句子级文本" style="ellipse;whiteSpace=wrap;html=1;" vertex="1" parent="WIyWlLk6GJQsqaUBKTNV-1">
          <mxGeometry x="1432" y="293" width="120" height="80" as="geometry" />
        </mxCell>
        <mxCell id="pO1PlLlpX6BgmMhYATf7-44" value="模型输出" style="text;html=1;align=center;verticalAlign=middle;resizable=0;points=[];autosize=1;strokeColor=none;fillColor=none;" vertex="1" parent="WIyWlLk6GJQsqaUBKTNV-1">
          <mxGeometry x="1361" y="302" width="70" height="30" as="geometry" />
        </mxCell>
        <mxCell id="pO1PlLlpX6BgmMhYATf7-50" style="edgeStyle=orthogonalEdgeStyle;rounded=0;orthogonalLoop=1;jettySize=auto;html=1;exitX=0;exitY=0.5;exitDx=0;exitDy=0;" edge="1" parent="WIyWlLk6GJQsqaUBKTNV-1" source="pO1PlLlpX6BgmMhYATf7-46" target="pO1PlLlpX6BgmMhYATf7-49">
          <mxGeometry relative="1" as="geometry" />
        </mxCell>
        <mxCell id="pO1PlLlpX6BgmMhYATf7-46" value="划分文段" style="ellipse;whiteSpace=wrap;html=1;" vertex="1" parent="WIyWlLk6GJQsqaUBKTNV-1">
          <mxGeometry x="1432" y="427" width="120" height="80" as="geometry" />
        </mxCell>
        <mxCell id="pO1PlLlpX6BgmMhYATf7-48" value="设置最大文段长度为L(变量)，&lt;br&gt;按序抽取m个句子组成文段" style="text;html=1;align=left;verticalAlign=middle;resizable=0;points=[];autosize=1;strokeColor=none;fillColor=none;" vertex="1" parent="WIyWlLk6GJQsqaUBKTNV-1">
          <mxGeometry x="1330" y="385" width="180" height="40" as="geometry" />
        </mxCell>
        <mxCell id="pO1PlLlpX6BgmMhYATf7-52" style="edgeStyle=orthogonalEdgeStyle;rounded=0;orthogonalLoop=1;jettySize=auto;html=1;exitX=0;exitY=0.5;exitDx=0;exitDy=0;" edge="1" parent="WIyWlLk6GJQsqaUBKTNV-1" source="pO1PlLlpX6BgmMhYATf7-49" target="pO1PlLlpX6BgmMhYATf7-51">
          <mxGeometry relative="1" as="geometry" />
        </mxCell>
        <mxCell id="pO1PlLlpX6BgmMhYATf7-49" value="上下文拓展" style="rounded=1;whiteSpace=wrap;html=1;" vertex="1" parent="WIyWlLk6GJQsqaUBKTNV-1">
          <mxGeometry x="1244" y="437" width="120" height="60" as="geometry" />
        </mxCell>
        <mxCell id="pO1PlLlpX6BgmMhYATf7-51" value="最终文段i&lt;br&gt;&lt;div&gt;[i-1段末尾内容&lt;/div&gt;&lt;div&gt;+&lt;/div&gt;&lt;div&gt;本文段（长度为N）&lt;/div&gt;&lt;div&gt;+&lt;/div&gt;&lt;div&gt;i+1段起始内容]&lt;/div&gt;" style="ellipse;whiteSpace=wrap;html=1;" vertex="1" parent="WIyWlLk6GJQsqaUBKTNV-1">
          <mxGeometry x="1058" y="427" width="120" height="80" as="geometry" />
        </mxCell>
      </root>
    </mxGraphModel>
  </diagram>
  <diagram id="XXCvhHnXPWYsY6MiBfB2" name="划分语料">
    <mxGraphModel dx="419" dy="432" grid="0" gridSize="10" guides="1" tooltips="1" connect="1" arrows="1" fold="1" page="0" pageScale="1" pageWidth="827" pageHeight="1169" math="0" shadow="0">
      <root>
        <mxCell id="0" />
        <mxCell id="1" parent="0" />
        <mxCell id="E5J971-Q27gMZlBGy_2f-1" style="edgeStyle=orthogonalEdgeStyle;rounded=0;orthogonalLoop=1;jettySize=auto;html=1;exitX=1;exitY=0.5;exitDx=0;exitDy=0;entryX=0;entryY=0.5;entryDx=0;entryDy=0;fontStyle=1;fontFamily=Times New Roman;fontSize=10;verticalAlign=middle;horizontal=1;" edge="1" parent="1" source="E5J971-Q27gMZlBGy_2f-2" target="E5J971-Q27gMZlBGy_2f-4">
          <mxGeometry relative="1" as="geometry">
            <mxPoint x="778.6666666666667" y="50.16666666666674" as="targetPoint" />
          </mxGeometry>
        </mxCell>
        <mxCell id="E5J971-Q27gMZlBGy_2f-2" value="PDF、Word、Markdown和图片等多种相关语料篇章" style="ellipse;whiteSpace=wrap;html=1;fontStyle=1;fontFamily=Times New Roman;fontSize=10;verticalAlign=middle;horizontal=1;" vertex="1" parent="1">
          <mxGeometry x="612" y="8.5" width="125" height="83" as="geometry" />
        </mxCell>
        <mxCell id="E5J971-Q27gMZlBGy_2f-3" style="edgeStyle=orthogonalEdgeStyle;rounded=0;orthogonalLoop=1;jettySize=auto;html=1;exitX=1;exitY=0.5;exitDx=0;exitDy=0;fontStyle=1;fontFamily=Times New Roman;fontSize=10;verticalAlign=middle;horizontal=1;" edge="1" parent="1" source="E5J971-Q27gMZlBGy_2f-4">
          <mxGeometry relative="1" as="geometry">
            <mxPoint x="995.3333333333335" y="50.16666666666674" as="targetPoint" />
          </mxGeometry>
        </mxCell>
        <mxCell id="E5J971-Q27gMZlBGy_2f-4" value="使用中文文本分割模型zh_core_web_sm&amp;nbsp;" style="rounded=1;whiteSpace=wrap;html=1;fontStyle=1;fontFamily=Times New Roman;fontSize=10;verticalAlign=middle;horizontal=1;" vertex="1" parent="1">
          <mxGeometry x="805" y="20" width="120" height="60" as="geometry" />
        </mxCell>
        <mxCell id="E5J971-Q27gMZlBGy_2f-5" value="数据输入" style="text;html=1;align=center;verticalAlign=middle;resizable=0;points=[];autosize=1;strokeColor=none;fillColor=none;fontStyle=1;fontFamily=Times New Roman;fontSize=10;horizontal=1;" vertex="1" parent="1">
          <mxGeometry x="744" y="25" width="58" height="24" as="geometry" />
        </mxCell>
        <mxCell id="E5J971-Q27gMZlBGy_2f-6" style="edgeStyle=orthogonalEdgeStyle;rounded=0;orthogonalLoop=1;jettySize=auto;html=1;exitX=0.5;exitY=1;exitDx=0;exitDy=0;entryX=0.5;entryY=0;entryDx=0;entryDy=0;fontStyle=1;fontFamily=Times New Roman;fontSize=10;verticalAlign=middle;horizontal=1;" edge="1" parent="1" source="E5J971-Q27gMZlBGy_2f-7" target="E5J971-Q27gMZlBGy_2f-10">
          <mxGeometry relative="1" as="geometry" />
        </mxCell>
        <mxCell id="E5J971-Q27gMZlBGy_2f-7" value="句子级文本&lt;br style=&quot;font-size: 10px;&quot;&gt;1.————&lt;br style=&quot;font-size: 10px;&quot;&gt;2.————&lt;br style=&quot;font-size: 10px;&quot;&gt;......" style="ellipse;whiteSpace=wrap;html=1;fontStyle=1;fontFamily=Times New Roman;fontSize=10;verticalAlign=middle;horizontal=1;" vertex="1" parent="1">
          <mxGeometry x="994" y="10" width="120" height="80" as="geometry" />
        </mxCell>
        <mxCell id="E5J971-Q27gMZlBGy_2f-8" value="模型输出" style="text;html=1;align=center;verticalAlign=middle;resizable=0;points=[];autosize=1;strokeColor=none;fillColor=none;fontStyle=1;fontFamily=Times New Roman;fontSize=10;horizontal=1;" vertex="1" parent="1">
          <mxGeometry x="929" y="25" width="58" height="24" as="geometry" />
        </mxCell>
        <mxCell id="E5J971-Q27gMZlBGy_2f-9" style="edgeStyle=orthogonalEdgeStyle;rounded=0;orthogonalLoop=1;jettySize=auto;html=1;exitX=0;exitY=0.5;exitDx=0;exitDy=0;fontStyle=1;fontFamily=Times New Roman;fontSize=10;verticalAlign=middle;horizontal=1;" edge="1" parent="1" source="E5J971-Q27gMZlBGy_2f-10" target="E5J971-Q27gMZlBGy_2f-13">
          <mxGeometry relative="1" as="geometry" />
        </mxCell>
        <mxCell id="E5J971-Q27gMZlBGy_2f-10" value="&lt;div style=&quot;font-size: 10px;&quot;&gt;划分后文段 i&lt;/div&gt;&lt;div style=&quot;font-size: 10px;&quot;&gt;&lt;span style=&quot;font-weight: normal; font-size: 10px;&quot;&gt;(文段长度N &amp;lt;=L)&lt;/span&gt;&lt;/div&gt;&lt;div style=&quot;font-size: 10px;&quot;&gt;&lt;span style=&quot;font-weight: normal; font-size: 10px;&quot;&gt;1.——2.——...&lt;br style=&quot;font-size: 10px;&quot;&gt;m.——。&lt;/span&gt;&lt;/div&gt;" style="ellipse;whiteSpace=wrap;html=1;fontStyle=1;fontFamily=Times New Roman;fontSize=10;verticalAlign=middle;horizontal=1;" vertex="1" parent="1">
          <mxGeometry x="994" y="144" width="120" height="80" as="geometry" />
        </mxCell>
        <mxCell id="E5J971-Q27gMZlBGy_2f-11" value="设置最大文段长度为L(变量)，&lt;br style=&quot;font-size: 10px;&quot;&gt;按序抽取m个句子组成文段" style="text;html=1;align=left;verticalAlign=middle;resizable=0;points=[];autosize=1;strokeColor=none;fillColor=none;fontStyle=1;fontFamily=Times New Roman;fontSize=10;horizontal=1;" vertex="1" parent="1">
          <mxGeometry x="918" y="98" width="151" height="36" as="geometry" />
        </mxCell>
        <mxCell id="E5J971-Q27gMZlBGy_2f-12" style="edgeStyle=orthogonalEdgeStyle;rounded=0;orthogonalLoop=1;jettySize=auto;html=1;exitX=0;exitY=0.5;exitDx=0;exitDy=0;fontStyle=1;fontFamily=Times New Roman;fontSize=10;verticalAlign=middle;horizontal=1;" edge="1" parent="1" source="E5J971-Q27gMZlBGy_2f-13" target="E5J971-Q27gMZlBGy_2f-14">
          <mxGeometry relative="1" as="geometry" />
        </mxCell>
        <mxCell id="E5J971-Q27gMZlBGy_2f-13" value="上下文拓展" style="rounded=1;whiteSpace=wrap;html=1;fontStyle=1;fontFamily=Times New Roman;fontSize=10;verticalAlign=middle;horizontal=1;" vertex="1" parent="1">
          <mxGeometry x="806" y="154" width="120" height="60" as="geometry" />
        </mxCell>
        <mxCell id="E5J971-Q27gMZlBGy_2f-14" value="最终文段 i&lt;br style=&quot;font-size: 10px;&quot;&gt;&lt;div style=&quot;font-size: 10px;&quot;&gt;&lt;span style=&quot;font-weight: normal; font-size: 10px;&quot;&gt;[i-1段末尾内容&lt;/span&gt;&lt;/div&gt;&lt;div style=&quot;font-size: 10px;&quot;&gt;&lt;span style=&quot;font-weight: normal; font-size: 10px;&quot;&gt;+&lt;/span&gt;&lt;/div&gt;&lt;div style=&quot;font-size: 10px;&quot;&gt;&lt;span style=&quot;font-weight: normal; font-size: 10px;&quot;&gt;本文段（长度为N）&lt;/span&gt;&lt;/div&gt;&lt;div style=&quot;font-size: 10px;&quot;&gt;&lt;span style=&quot;font-weight: normal; font-size: 10px;&quot;&gt;+&lt;/span&gt;&lt;/div&gt;&lt;div style=&quot;font-size: 10px;&quot;&gt;&lt;span style=&quot;font-weight: normal; font-size: 10px;&quot;&gt;i+1段起始内容]&lt;/span&gt;&lt;/div&gt;" style="ellipse;whiteSpace=wrap;html=1;fontStyle=1;fontFamily=Times New Roman;fontSize=10;verticalAlign=middle;horizontal=1;" vertex="1" parent="1">
          <mxGeometry x="612" y="141" width="132" height="85" as="geometry" />
        </mxCell>
        <mxCell id="E5J971-Q27gMZlBGy_2f-15" value="&lt;font style=&quot;font-size: 10px;&quot;&gt;&lt;b style=&quot;font-size: 10px;&quot;&gt;划分结束&lt;/b&gt;&lt;/font&gt;" style="text;html=1;align=center;verticalAlign=middle;resizable=0;points=[];autosize=1;strokeColor=none;fillColor=none;fontFamily=Times New Roman;fontSize=10;horizontal=1;" vertex="1" parent="1">
          <mxGeometry x="747.5" y="153" width="58" height="24" as="geometry" />
        </mxCell>
      </root>
    </mxGraphModel>
  </diagram>
</mxfile>
